<svg width="730" height="506" viewBox="0 0 730 506" fill="none" xmlns="http://www.w3.org/2000/svg">
<g clip-path="url(#clip0_73_123)">
<path d="M579.148 505.205L427.791 274.233C427.674 274.05 427.611 273.839 427.611 273.626V62.3308C427.611 62.033 427.493 61.7473 427.283 61.5367C427.072 61.3261 426.786 61.2078 426.488 61.2078H303.512C303.214 61.2078 302.928 61.3261 302.717 61.5367C302.507 61.7473 302.388 62.033 302.388 62.3308L302.4 273.952C302.4 274.171 302.333 274.386 302.209 274.57L150.874 505.317" stroke="#7F0000" stroke-width="2"/>
<path d="M490.998 505.385L448.759 449.411C448.616 449.221 448.538 448.99 448.536 448.752C448.534 448.514 448.608 448.28 448.748 448.085C450.986 444.926 451.496 441.107 450.275 436.63C441.706 405.072 425.511 340.708 384.654 340.618C373.438 340.596 362.204 340.581 350.95 340.573C343.86 340.573 338.525 341.097 334.946 342.146C316.663 347.48 304.769 366.674 297.761 383.441C290.671 400.385 284.801 417.744 280.152 435.518C274.671 456.441 297.93 453.948 305.275 441.661C306.495 439.617 307.513 436.297 308.33 431.7C311.575 413.281 315.439 394.762 322.278 377.298C324.36 371.997 326.969 366.984 330.106 362.26C331.716 359.841 332.262 360.062 331.746 362.922L305.803 505.396" stroke="#7F0000" stroke-width="2"/>
<path d="M391.044 210.79C390.565 211.666 390.288 212.531 390.213 213.385C390.018 215.518 390.662 215.81 392.145 214.261L395.255 210.992C395.364 210.882 395.448 210.75 395.503 210.605C395.557 210.459 395.58 210.304 395.57 210.148C395.561 209.993 395.519 209.841 395.447 209.702C395.376 209.563 395.276 209.44 395.154 209.342C393.605 208.091 392.234 208.574 391.044 210.79Z" stroke="#7F0000" stroke-width="2"/>
<path d="M403.286 213.138C400.995 213.011 399.018 213.699 397.356 215.204C395.948 216.477 396.192 217.129 398.086 217.159L404.802 217.282C404.985 217.286 405.166 217.245 405.328 217.163C405.491 217.08 405.63 216.959 405.734 216.81C407.194 214.766 405.33 213.261 403.286 213.138Z" stroke="#7F0000" stroke-width="2"/>
<path d="M391.931 228.737C391.931 225.693 390.722 222.774 388.57 220.621C386.417 218.469 383.498 217.259 380.454 217.259C377.41 217.259 374.49 218.469 372.338 220.621C370.185 222.774 368.976 225.693 368.976 228.737C368.976 231.781 370.185 234.701 372.338 236.853C374.49 239.006 377.41 240.215 380.454 240.215C383.498 240.215 386.417 239.006 388.57 236.853C390.722 234.701 391.931 231.781 391.931 228.737Z" stroke="#7F0000" stroke-width="2"/>
<path d="M400.938 222.516C399.718 222.119 398.55 222.115 397.434 222.504C394.874 223.395 394.919 224.118 397.569 224.672L400.938 225.368C401.184 225.42 401.439 225.387 401.664 225.274C401.888 225.162 402.068 224.978 402.174 224.75C402.69 223.687 402.279 222.942 400.938 222.516Z" stroke="#7F0000" stroke-width="2"/>
<path d="M394.525 279.366L386.102 278.804" stroke="#CC0000" stroke-width="2"/>
<path d="M386.103 278.804C386.024 274.278 383.407 272.29 378.904 272.38C374.883 272.455 370.855 272.586 366.819 272.773C366.661 272.78 366.506 272.822 366.364 272.895C366.223 272.969 366.098 273.073 366 273.2C362.406 277.67 352.77 279.321 347.312 281.376" stroke="#7F0000" stroke-width="2"/>
<path d="M347.312 281.376L346.75 280.253" stroke="#CC0000" stroke-width="2"/>
<path d="M346.75 280.253C351.107 278.576 355.48 276.932 359.867 275.322C368.773 272.054 364.798 261.699 357.689 263.878C354.432 264.874 345.612 267.947 331.229 273.099C328.286 274.154 326.987 276.43 327.332 279.927" stroke="#7F0000" stroke-width="2"/>
<path d="M327.332 279.927C323.484 280.429 319.766 281.387 316.18 282.802C306.78 286.52 330.42 289.878 330.825 289.923C352.612 292.326 374.389 292.251 396.154 289.698C400.631 289.174 405.348 288.036 410.305 286.284C410.456 286.228 410.593 286.142 410.708 286.029C410.823 285.917 410.912 285.781 410.971 285.631C411.029 285.481 411.055 285.321 411.047 285.161C411.038 285 410.996 284.843 410.923 284.7C409.59 282.155 406.651 280.938 402.106 281.05" stroke="#CC0000" stroke-width="2"/>
<path d="M402.107 281.05C398.932 269.101 395.716 257.17 392.459 245.258C391.819 242.911 391.808 240.979 389.573 239.586C389.412 239.487 389.227 239.429 389.037 239.42C388.847 239.41 388.656 239.448 388.484 239.53C379.035 244.195 372.132 241.93 367.774 232.736C367.679 232.531 367.524 232.36 367.329 232.246C367.135 232.131 366.91 232.079 366.685 232.095C363.765 232.29 361.489 233.615 359.856 236.071C357.543 239.53 351.793 248.751 358.329 251.289C364.102 253.524 373.479 254.546 381.24 258.117C381.372 258.178 381.49 258.263 381.589 258.369C381.687 258.475 381.763 258.6 381.813 258.735C383.108 262.022 385.129 262.579 387.877 260.408C388.094 260.243 388.239 260.001 388.282 259.734C389.337 253.872 383.419 251.098 378.556 249.784C373.667 248.451 368.744 247.223 363.787 246.1C363.63 246.064 363.481 245.995 363.353 245.897C363.225 245.798 363.119 245.674 363.043 245.531C362.967 245.388 362.923 245.23 362.914 245.069C362.905 244.907 362.931 244.746 362.99 244.595C363.514 243.285 364.21 242.076 365.079 240.968C365.88 239.949 366.318 240.006 366.393 241.136C366.407 241.356 366.357 241.574 366.247 241.765L365.427 243.18C365.34 243.331 365.29 243.5 365.279 243.674C365.269 243.848 365.3 244.022 365.368 244.182C365.437 244.343 365.542 244.485 365.675 244.597C365.808 244.71 365.965 244.79 366.134 244.831C370.829 245.984 375.493 247.234 380.128 248.582C386.316 250.368 391.673 254.388 389.932 261.396C389.88 261.584 389.88 261.767 389.932 261.947L394.526 279.366" stroke="#7F0000" stroke-width="2"/>
<path d="M402.107 281.05C401.53 284.704 399.677 285.674 396.547 283.959C396.308 283.828 396.125 283.621 396.031 283.375L394.526 279.366" stroke="#4D0000" stroke-width="2"/>
<path d="M386.103 278.804C385.193 282.42 383.003 283.689 379.241 283.88C365.037 284.577 355.641 284.846 351.051 284.689C349.367 284.629 348.12 283.525 347.312 281.376" stroke="#4D0000" stroke-width="2"/>
<path d="M346.75 280.253C341.202 281.915 330.218 288.44 327.332 279.927" stroke="#4D0000" stroke-width="2"/>
<path d="M348.929 239.71C347.461 242.128 347.345 244.341 348.581 246.347C349.135 247.238 349.577 247.384 349.906 246.785C349.967 246.674 349.998 246.548 349.994 246.421C349.99 246.295 349.952 246.172 349.884 246.066C348.371 243.573 348.622 241.439 350.636 239.665C350.744 239.565 350.812 239.429 350.827 239.284C350.841 239.139 350.801 238.994 350.715 238.879C350.235 238.257 349.64 238.534 348.929 239.71Z" stroke="#7F0000" stroke-width="2"/>
<path d="M351.781 242.585L352.736 241.013C353.357 239.972 353.118 239.695 352.017 240.182C349.827 241.136 350.254 244.348 351.467 245.774C351.551 245.876 351.669 245.945 351.8 245.969C351.931 245.994 352.067 245.973 352.186 245.909L352.466 245.752C352.534 245.713 352.585 245.651 352.608 245.577C352.631 245.504 352.625 245.426 352.59 245.359L351.736 243.674C351.651 243.506 351.61 243.317 351.618 243.127C351.626 242.936 351.682 242.75 351.781 242.585Z" stroke="#7F0000" stroke-width="2"/>
<path d="M398.76 246.976C400.523 248.537 401.545 251.143 400.152 253.299C400.036 253.483 399.989 253.703 400.02 253.917C400.051 254.131 400.158 254.327 400.321 254.467C402.118 256.017 402.724 249.088 399.58 246.549C399.389 246.392 397.199 245.584 398.76 246.976Z" stroke="#7F0000" stroke-width="2"/>
<path d="M398.029 252.097C397.543 252.876 397.562 253.419 398.086 253.726C398.154 253.764 398.228 253.789 398.305 253.798C398.383 253.808 398.461 253.802 398.535 253.781C398.609 253.76 398.678 253.724 398.738 253.676C398.798 253.628 398.847 253.569 398.883 253.501C399.77 251.85 398.894 248.144 396.951 248.223C396.375 248.238 396.255 248.481 396.592 248.953L397.973 250.851C398.106 251.029 398.183 251.243 398.193 251.465C398.203 251.688 398.146 251.908 398.029 252.097Z" stroke="#7F0000" stroke-width="2"/>
<path d="M358.217 254.231L355.285 260.824C354.679 262.194 355.102 262.71 356.555 262.373C362.582 261.011 366.052 263.452 366.965 269.696C367.003 269.964 367.137 270.209 367.341 270.387C367.545 270.564 367.807 270.662 368.077 270.662H378.196C378.408 270.661 378.615 270.601 378.794 270.488C378.973 270.374 379.116 270.213 379.207 270.022L382.217 263.687C382.3 263.513 382.336 263.32 382.322 263.127C382.308 262.934 382.245 262.748 382.138 262.587L379.881 259.206C379.729 258.975 379.497 258.807 379.229 258.735L359.531 253.602C359.273 253.534 358.999 253.56 358.758 253.675C358.517 253.79 358.325 253.987 358.217 254.231Z" stroke="#7F0000" stroke-width="2"/>
<path d="M386.9 324.379C386.9 321.099 384.604 317.954 380.518 315.635C376.432 313.316 370.891 312.014 365.112 312.014C359.334 312.014 353.792 313.316 349.706 315.635C345.62 317.954 343.325 321.099 343.325 324.379C343.325 327.658 345.62 330.803 349.706 333.122C353.792 335.441 359.334 336.744 365.112 336.744C370.891 336.744 376.432 335.441 380.518 333.122C384.604 330.803 386.9 327.658 386.9 324.379Z" stroke="#7F0000" stroke-width="2"/>
<path d="M387.383 232.938C384.687 225.874 370.907 231.276 374.636 233.915C374.773 234.013 374.931 234.078 375.098 234.105C375.266 234.132 375.438 234.121 375.602 234.072C379.106 233.016 382.55 233.121 385.934 234.386C387.491 234.97 387.974 234.488 387.383 232.938Z" stroke="#808080" stroke-width="2"/>
<path d="M480.037 505.206L441.942 451.904C441.847 451.774 441.725 451.665 441.586 451.586C441.447 451.506 441.292 451.458 441.134 451.444C433.422 450.703 427.889 447.188 424.534 440.898C422.21 436.53 421.626 430.117 420.716 424.838C419.964 420.537 417.369 417.763 414.91 414.371C414.739 414.136 414.666 413.844 414.708 413.556C414.75 413.269 414.903 413.009 415.134 412.833L417.223 411.204C417.388 411.073 417.514 410.898 417.585 410.7C417.656 410.502 417.671 410.287 417.628 410.081C415.741 401.052 413.33 392.168 410.395 383.43C407.849 375.861 404.405 368.744 400.063 362.081C398.445 359.587 397.903 359.805 398.434 362.732L424.332 505.397" stroke="#7F0000" stroke-width="2"/>
<path d="M369.942 505.385L368.875 431.149C368.869 430.853 368.747 430.57 368.535 430.362C368.323 430.154 368.038 430.038 367.741 430.038L362.35 430.049C362.053 430.052 361.769 430.17 361.559 430.378C361.349 430.586 361.23 430.867 361.227 431.161L360.25 505.385" stroke="#7F0000" stroke-width="2"/>
<path d="M0 0H730V505.385L579.148 505.205L427.791 274.233C427.674 274.05 427.611 273.84 427.612 273.627V62.3308C427.612 62.033 427.493 61.7473 427.283 61.5367C427.072 61.3261 426.786 61.2077 426.488 61.2077H303.512C303.214 61.2077 302.928 61.3261 302.717 61.5367C302.507 61.7473 302.388 62.033 302.388 62.3308L302.4 273.952C302.4 274.171 302.333 274.387 302.209 274.57L150.874 505.318L0 505.385V0Z" fill="#0D0101"/>
<path d="M579.148 505.205L490.998 505.385L448.759 449.411C448.616 449.221 448.538 448.991 448.536 448.752C448.534 448.514 448.608 448.28 448.748 448.086C450.986 444.926 451.496 441.108 450.275 436.63C441.706 405.072 425.511 340.708 384.654 340.618C373.438 340.596 362.204 340.581 350.95 340.573C343.86 340.573 338.525 341.097 334.946 342.146C316.663 347.48 304.769 366.674 297.761 383.441C290.671 400.385 284.801 417.744 280.152 435.518C274.671 456.441 297.93 453.948 305.275 441.662C306.495 439.618 307.513 436.297 308.33 431.7C311.575 413.281 315.439 394.762 322.278 377.298C324.36 371.997 326.969 366.984 330.106 362.26C331.716 359.842 332.262 360.062 331.746 362.923L305.803 505.396L150.874 505.318L302.209 274.57C302.333 274.387 302.4 274.171 302.4 273.952L302.388 62.3308C302.388 62.033 302.507 61.7473 302.717 61.5367C302.928 61.3261 303.214 61.2078 303.512 61.2078H426.488C426.786 61.2078 427.072 61.3261 427.283 61.5367C427.493 61.7473 427.611 62.033 427.611 62.3308V273.627C427.611 273.84 427.674 274.05 427.791 274.233L579.148 505.205ZM391.044 210.79C390.565 211.666 390.288 212.531 390.213 213.385C390.018 215.519 390.662 215.811 392.145 214.261L395.256 210.993C395.364 210.882 395.449 210.75 395.503 210.605C395.557 210.459 395.58 210.304 395.571 210.148C395.561 209.993 395.519 209.841 395.448 209.702C395.376 209.563 395.276 209.44 395.155 209.342C393.605 208.091 392.235 208.574 391.044 210.79ZM403.286 213.138C400.995 213.01 399.018 213.699 397.356 215.204C395.948 216.477 396.192 217.128 398.086 217.158L404.802 217.282C404.985 217.286 405.166 217.245 405.328 217.162C405.491 217.08 405.63 216.959 405.734 216.81C407.194 214.766 405.33 213.261 403.286 213.138ZM391.931 228.737C391.931 225.693 390.722 222.774 388.57 220.621C386.417 218.469 383.498 217.259 380.454 217.259C377.409 217.259 374.49 218.469 372.337 220.621C370.185 222.774 368.976 225.693 368.976 228.737C368.976 231.781 370.185 234.701 372.337 236.853C374.49 239.006 377.409 240.215 380.454 240.215C383.498 240.215 386.417 239.006 388.57 236.853C390.722 234.701 391.931 231.781 391.931 228.737ZM400.938 222.515C399.718 222.119 398.55 222.115 397.434 222.504C394.874 223.395 394.919 224.118 397.569 224.672L400.938 225.368C401.184 225.419 401.439 225.386 401.664 225.274C401.888 225.162 402.068 224.978 402.174 224.75C402.69 223.687 402.279 222.942 400.938 222.515ZM394.526 279.366L386.103 278.804C386.024 274.278 383.407 272.29 378.904 272.38C374.883 272.455 370.855 272.586 366.819 272.773C366.661 272.78 366.506 272.822 366.364 272.895C366.223 272.969 366.098 273.073 366 273.2C362.406 277.67 352.77 279.321 347.312 281.376L346.75 280.253C351.108 278.576 355.48 276.932 359.868 275.323C368.774 272.054 364.798 261.7 357.689 263.878C354.432 264.874 345.612 267.948 331.229 273.099C328.287 274.155 326.988 276.431 327.332 279.927C323.484 280.429 319.766 281.387 316.18 282.802C306.78 286.52 330.42 289.878 330.825 289.923C352.612 292.326 374.389 292.251 396.154 289.698C400.631 289.174 405.348 288.036 410.305 286.284C410.456 286.228 410.593 286.142 410.708 286.029C410.823 285.917 410.912 285.781 410.971 285.631C411.029 285.481 411.055 285.321 411.047 285.161C411.038 285 410.996 284.843 410.923 284.7C409.59 282.155 406.651 280.938 402.106 281.05C398.932 269.101 395.716 257.17 392.459 245.258C391.819 242.911 391.808 240.979 389.573 239.586C389.411 239.487 389.227 239.429 389.037 239.419C388.846 239.41 388.656 239.448 388.484 239.53C379.035 244.195 372.132 241.93 367.774 232.735C367.679 232.531 367.524 232.36 367.329 232.246C367.134 232.131 366.91 232.079 366.685 232.095C363.765 232.29 361.489 233.615 359.856 236.071C357.543 239.53 351.793 248.751 358.329 251.289C364.102 253.524 373.479 254.546 381.24 258.117C381.372 258.177 381.49 258.263 381.588 258.369C381.687 258.475 381.763 258.599 381.812 258.735C383.108 262.022 385.129 262.579 387.877 260.408C388.094 260.243 388.238 260.001 388.281 259.734C389.337 253.872 383.418 251.098 378.556 249.784C373.666 248.451 368.744 247.223 363.787 246.1C363.629 246.064 363.481 245.995 363.353 245.897C363.224 245.798 363.119 245.673 363.043 245.531C362.967 245.388 362.923 245.23 362.914 245.069C362.905 244.907 362.931 244.746 362.99 244.595C363.514 243.285 364.21 242.076 365.079 240.968C365.88 239.949 366.318 240.005 366.393 241.136C366.407 241.356 366.356 241.574 366.247 241.765L365.427 243.18C365.34 243.331 365.289 243.5 365.279 243.674C365.269 243.848 365.299 244.022 365.368 244.182C365.437 244.342 365.542 244.484 365.675 244.597C365.808 244.71 365.965 244.79 366.134 244.831C370.829 245.984 375.493 247.234 380.128 248.582C386.316 250.368 391.673 254.388 389.932 261.396C389.88 261.584 389.88 261.767 389.932 261.947L394.526 279.366ZM348.929 239.71C347.461 242.128 347.345 244.341 348.581 246.347C349.135 247.238 349.576 247.384 349.906 246.785C349.967 246.673 349.998 246.548 349.994 246.421C349.99 246.295 349.952 246.172 349.883 246.066C348.371 243.573 348.622 241.439 350.636 239.665C350.744 239.565 350.812 239.429 350.827 239.284C350.841 239.139 350.801 238.994 350.714 238.879C350.235 238.257 349.64 238.534 348.929 239.71ZM351.781 242.585L352.736 241.013C353.357 239.972 353.118 239.695 352.017 240.181C349.827 241.136 350.254 244.348 351.467 245.774C351.551 245.876 351.669 245.945 351.8 245.969C351.931 245.994 352.067 245.973 352.186 245.909L352.466 245.752C352.534 245.713 352.585 245.65 352.608 245.577C352.631 245.504 352.625 245.426 352.59 245.359L351.736 243.674C351.651 243.506 351.61 243.317 351.618 243.127C351.626 242.936 351.682 242.749 351.781 242.585ZM398.76 246.976C400.523 248.537 401.545 251.143 400.152 253.299C400.036 253.483 399.989 253.703 400.02 253.917C400.051 254.131 400.158 254.326 400.321 254.467C402.118 256.017 402.724 249.087 399.58 246.549C399.389 246.392 397.199 245.583 398.76 246.976ZM398.03 252.097C397.543 252.876 397.562 253.419 398.086 253.726C398.154 253.764 398.228 253.789 398.306 253.798C398.383 253.808 398.461 253.802 398.535 253.781C398.609 253.76 398.679 253.724 398.738 253.676C398.798 253.628 398.847 253.569 398.883 253.501C399.77 251.85 398.894 248.144 396.952 248.223C396.375 248.238 396.255 248.481 396.592 248.953L397.973 250.851C398.106 251.029 398.183 251.243 398.193 251.465C398.203 251.688 398.146 251.908 398.03 252.097ZM358.217 254.231L355.285 260.824C354.679 262.194 355.102 262.71 356.554 262.373C362.582 261.011 366.052 263.452 366.965 269.696C367.003 269.964 367.137 270.209 367.341 270.387C367.545 270.564 367.807 270.662 368.077 270.662H378.196C378.408 270.661 378.615 270.601 378.794 270.487C378.973 270.374 379.116 270.213 379.207 270.022L382.217 263.687C382.299 263.513 382.336 263.32 382.322 263.127C382.308 262.934 382.245 262.748 382.138 262.587L379.881 259.206C379.729 258.975 379.497 258.807 379.229 258.735L359.531 253.602C359.273 253.534 358.999 253.559 358.758 253.675C358.517 253.79 358.325 253.987 358.217 254.231ZM386.9 324.379C386.9 321.099 384.604 317.954 380.519 315.635C376.433 313.316 370.891 312.013 365.112 312.013C359.334 312.013 353.792 313.316 349.706 315.635C345.62 317.954 343.325 321.099 343.325 324.379C343.325 327.658 345.62 330.803 349.706 333.122C353.792 335.441 359.334 336.744 365.112 336.744C370.891 336.744 376.433 335.441 380.519 333.122C384.604 330.803 386.9 327.658 386.9 324.379Z" fill="#FE570B"/>
<path d="M391.044 210.79C392.234 208.574 393.605 208.091 395.154 209.342C395.276 209.44 395.376 209.563 395.447 209.702C395.519 209.841 395.561 209.993 395.57 210.148C395.58 210.304 395.557 210.459 395.503 210.605C395.448 210.75 395.364 210.882 395.255 210.992L392.145 214.261C390.662 215.81 390.018 215.518 390.213 213.385C390.288 212.531 390.565 211.666 391.044 210.79Z" fill="black"/>
<path d="M403.286 213.138C405.33 213.261 407.194 214.766 405.734 216.81C405.63 216.959 405.491 217.08 405.328 217.162C405.166 217.245 404.985 217.286 404.802 217.282L398.086 217.158C396.192 217.128 395.948 216.477 397.356 215.204C399.018 213.699 400.995 213.011 403.286 213.138Z" fill="black"/>
<path d="M391.931 228.737C391.931 231.781 390.722 234.701 388.569 236.853C386.417 239.006 383.497 240.215 380.453 240.215C377.409 240.215 374.49 239.006 372.337 236.853C370.185 234.701 368.975 231.781 368.975 228.737C368.975 225.693 370.185 222.774 372.337 220.621C374.49 218.469 377.409 217.259 380.453 217.259C383.497 217.259 386.417 218.469 388.569 220.621C390.722 222.774 391.931 225.693 391.931 228.737ZM387.383 232.938C384.687 225.873 370.907 231.275 374.636 233.915C374.772 234.013 374.931 234.078 375.098 234.105C375.265 234.132 375.438 234.121 375.601 234.072C379.105 233.016 382.55 233.121 385.934 234.386C387.491 234.97 387.974 234.487 387.383 232.938Z" fill="black"/>
<path d="M400.938 222.516C402.279 222.942 402.69 223.687 402.174 224.75C402.068 224.978 401.888 225.162 401.664 225.274C401.439 225.387 401.184 225.42 400.938 225.368L397.569 224.672C394.919 224.118 394.874 223.395 397.434 222.504C398.55 222.115 399.718 222.119 400.938 222.516Z" fill="black"/>
<path d="M374.636 233.915C370.907 231.276 384.687 225.874 387.383 232.938C387.974 234.488 387.491 234.97 385.934 234.386C382.55 233.121 379.106 233.016 375.602 234.072C375.438 234.121 375.266 234.132 375.098 234.105C374.931 234.078 374.773 234.013 374.636 233.915Z" fill="white"/>
<path d="M402.107 281.05C401.53 284.704 399.677 285.674 396.547 283.959C396.308 283.828 396.125 283.621 396.031 283.375L394.526 279.366L389.933 261.947C389.88 261.767 389.88 261.584 389.933 261.396C391.673 254.388 386.316 250.368 380.128 248.582C375.493 247.234 370.829 245.984 366.134 244.831C365.965 244.79 365.808 244.71 365.675 244.597C365.542 244.485 365.437 244.343 365.368 244.182C365.3 244.022 365.269 243.848 365.279 243.674C365.29 243.5 365.34 243.331 365.427 243.18L366.247 241.765C366.357 241.574 366.407 241.356 366.393 241.136C366.318 240.006 365.88 239.949 365.079 240.968C364.21 242.076 363.514 243.285 362.99 244.595C362.931 244.746 362.905 244.907 362.914 245.069C362.924 245.23 362.967 245.388 363.043 245.531C363.119 245.674 363.225 245.798 363.353 245.897C363.481 245.995 363.63 246.064 363.787 246.1C368.744 247.223 373.667 248.451 378.556 249.784C383.419 251.098 389.337 253.872 388.282 259.734C388.239 260.001 388.094 260.243 387.877 260.408C385.129 262.579 383.108 262.022 381.813 258.735C381.763 258.6 381.687 258.475 381.589 258.369C381.49 258.263 381.372 258.178 381.24 258.117C373.479 254.546 364.102 253.524 358.329 251.289C351.793 248.751 357.543 239.53 359.856 236.071C361.489 233.615 363.765 232.29 366.685 232.095C366.91 232.079 367.135 232.131 367.329 232.246C367.524 232.36 367.679 232.531 367.774 232.736C372.132 241.93 379.035 244.195 388.484 239.53C388.656 239.448 388.847 239.41 389.037 239.42C389.227 239.429 389.412 239.487 389.573 239.586C391.808 240.979 391.819 242.911 392.459 245.258C395.716 257.17 398.932 269.101 402.107 281.05Z" fill="black"/>
<path d="M348.929 239.71C349.64 238.534 350.235 238.257 350.715 238.879C350.801 238.994 350.841 239.139 350.827 239.284C350.812 239.429 350.744 239.565 350.636 239.665C348.622 241.439 348.371 243.573 349.884 246.066C349.952 246.172 349.99 246.295 349.994 246.421C349.998 246.548 349.967 246.674 349.906 246.785C349.577 247.384 349.135 247.238 348.581 246.347C347.345 244.341 347.461 242.128 348.929 239.71Z" fill="black"/>
<path d="M351.737 243.674L352.59 245.359C352.625 245.426 352.631 245.504 352.608 245.577C352.585 245.65 352.535 245.713 352.467 245.752L352.186 245.909C352.067 245.973 351.931 245.994 351.8 245.969C351.669 245.945 351.552 245.876 351.467 245.774C350.254 244.348 349.828 241.136 352.018 240.181C353.118 239.695 353.358 239.972 352.736 241.013L351.782 242.585C351.682 242.75 351.626 242.936 351.618 243.127C351.61 243.317 351.651 243.506 351.737 243.674Z" fill="black"/>
<path d="M400.152 253.299C401.545 251.143 400.523 248.537 398.76 246.976C397.198 245.584 399.388 246.392 399.579 246.549C402.724 249.088 402.118 256.017 400.321 254.467C400.158 254.327 400.051 254.131 400.02 253.917C399.989 253.703 400.036 253.483 400.152 253.299Z" fill="black"/>
<path d="M397.974 250.851L396.592 248.953C396.255 248.481 396.375 248.238 396.952 248.223C398.895 248.144 399.771 251.85 398.883 253.501C398.848 253.569 398.798 253.628 398.738 253.676C398.679 253.724 398.61 253.76 398.535 253.781C398.461 253.802 398.383 253.808 398.306 253.798C398.229 253.789 398.154 253.764 398.086 253.726C397.562 253.419 397.543 252.876 398.03 252.097C398.146 251.908 398.203 251.688 398.193 251.465C398.183 251.243 398.107 251.029 397.974 250.851Z" fill="black"/>
<path d="M358.217 254.231C358.325 253.987 358.517 253.79 358.758 253.675C358.999 253.559 359.273 253.534 359.531 253.602L379.23 258.735C379.497 258.807 379.729 258.975 379.881 259.206L382.138 262.587C382.245 262.748 382.308 262.934 382.322 263.127C382.336 263.32 382.3 263.513 382.217 263.687L379.207 270.021C379.116 270.213 378.973 270.374 378.794 270.487C378.615 270.601 378.408 270.661 378.196 270.662H368.077C367.807 270.662 367.545 270.564 367.341 270.386C367.137 270.209 367.003 269.964 366.966 269.696C366.052 263.452 362.582 261.011 356.555 262.373C355.102 262.71 354.679 262.194 355.286 260.824L358.217 254.231Z" fill="black"/>
<path d="M346.75 280.253C341.202 281.915 330.218 288.44 327.332 279.927C326.988 276.431 328.287 274.154 331.229 273.099C345.612 267.948 354.432 264.874 357.689 263.878C364.798 261.7 368.774 272.054 359.868 275.322C355.48 276.932 351.108 278.576 346.75 280.253Z" fill="black"/>
<path d="M386.103 278.804C385.193 282.42 383.003 283.69 379.241 283.88C365.037 284.577 355.641 284.846 351.051 284.689C349.367 284.629 348.12 283.525 347.312 281.376C352.77 279.321 362.406 277.67 366 273.2C366.098 273.073 366.223 272.969 366.364 272.895C366.506 272.822 366.661 272.78 366.819 272.773C370.855 272.586 374.883 272.455 378.904 272.38C383.407 272.29 386.024 274.278 386.103 278.804Z" fill="black"/>
<path d="M386.102 278.804L394.525 279.365L396.03 283.375C396.125 283.621 396.308 283.828 396.547 283.959C399.676 285.673 401.529 284.704 402.106 281.05C406.651 280.938 409.589 282.154 410.922 284.7C410.996 284.843 411.038 285 411.046 285.16C411.055 285.321 411.029 285.481 410.97 285.631C410.912 285.781 410.822 285.916 410.707 286.029C410.593 286.141 410.455 286.228 410.304 286.284C405.348 288.036 400.631 289.174 396.154 289.698C374.388 292.251 352.612 292.326 330.824 289.922C330.42 289.877 306.779 286.519 316.179 282.802C319.766 281.387 323.483 280.429 327.332 279.927C330.218 288.44 341.202 281.915 346.75 280.253L347.311 281.376C348.12 283.525 349.366 284.629 351.051 284.689C355.641 284.846 365.037 284.577 379.24 283.88C383.002 283.689 385.192 282.42 386.102 278.804Z" fill="#9A0000"/>
<path d="M365.112 336.744C377.145 336.744 386.9 331.208 386.9 324.379C386.9 317.55 377.145 312.014 365.112 312.014C353.079 312.014 343.325 317.55 343.325 324.379C343.325 331.208 353.079 336.744 365.112 336.744Z" fill="#0D0101"/>
<path d="M490.998 505.385L480.036 505.205L441.942 451.904C441.847 451.773 441.725 451.665 441.586 451.585C441.446 451.506 441.292 451.457 441.133 451.444C433.421 450.702 427.888 447.187 424.534 440.898C422.209 436.529 421.625 430.116 420.716 424.838C419.963 420.537 417.369 417.763 414.909 414.371C414.738 414.136 414.666 413.843 414.708 413.556C414.75 413.268 414.903 413.008 415.134 412.832L417.223 411.204C417.388 411.073 417.513 410.898 417.585 410.7C417.656 410.501 417.671 410.287 417.627 410.081C415.74 401.051 413.33 392.168 410.395 383.43C407.849 375.861 404.405 368.744 400.062 362.08C398.445 359.587 397.902 359.804 398.434 362.732L424.332 505.396L369.941 505.385L368.874 431.15C368.869 430.853 368.746 430.57 368.534 430.362C368.322 430.154 368.037 430.038 367.74 430.038L362.349 430.049C362.052 430.052 361.768 430.17 361.558 430.378C361.348 430.586 361.229 430.867 361.226 431.161L360.249 505.385L305.802 505.396L331.746 362.923C332.262 360.063 331.716 359.842 330.106 362.26C326.969 366.985 324.359 371.997 322.278 377.298C315.438 394.762 311.575 413.281 308.329 431.7C307.513 436.297 306.495 439.618 305.275 441.662C297.93 453.948 274.671 456.441 280.151 435.518C284.801 417.744 290.671 400.385 297.761 383.441C304.769 366.674 316.663 347.48 334.946 342.146C338.525 341.098 343.86 340.573 350.95 340.573C362.203 340.581 373.438 340.596 384.654 340.618C425.511 340.708 441.706 405.072 450.275 436.63C451.495 441.108 450.986 444.926 448.748 448.086C448.608 448.28 448.534 448.514 448.536 448.752C448.538 448.991 448.616 449.221 448.759 449.411L490.998 505.385Z" fill="#0D0101"/>
<path d="M480.037 505.205L424.332 505.396L398.434 362.732C397.903 359.804 398.445 359.587 400.063 362.08C404.405 368.744 407.849 375.86 410.395 383.43C413.33 392.167 415.741 401.051 417.628 410.08C417.671 410.287 417.656 410.501 417.585 410.699C417.514 410.898 417.388 411.072 417.223 411.204L415.134 412.832C414.903 413.008 414.75 413.268 414.708 413.555C414.666 413.843 414.739 414.136 414.91 414.371C417.369 417.762 419.964 420.536 420.716 424.838C421.626 430.116 422.21 436.529 424.534 440.898C427.889 447.187 433.422 450.702 441.134 451.443C441.292 451.457 441.447 451.506 441.586 451.585C441.726 451.664 441.847 451.773 441.942 451.904L480.037 505.205Z" fill="#FE0000"/>
<path d="M369.942 505.385H360.25L361.227 431.161C361.23 430.867 361.349 430.586 361.559 430.378C361.769 430.17 362.053 430.052 362.35 430.049L367.741 430.038C368.038 430.038 368.323 430.154 368.535 430.362C368.747 430.57 368.869 430.853 368.875 431.15L369.942 505.385Z" fill="#FE0000"/>
</g>
<defs>
<clipPath id="clip0_73_123">
<rect width="730" height="505.385" fill="white"/>
</clipPath>
</defs>
</svg>